<mxfile host="app.diagrams.net" agent="Mozilla/5.0 (Windows NT 10.0; Win64; x64) AppleWebKit/537.36 (KHTML, like Gecko) Chrome/129.0.0.0 Safari/537.36" version="24.7.17">
  <diagram name="Página-1" id="LI6zKejqzoOZ4lU1Wwnc">
    <mxGraphModel dx="662" dy="1784" grid="1" gridSize="10" guides="1" tooltips="1" connect="1" arrows="1" fold="1" page="1" pageScale="1" pageWidth="827" pageHeight="1169" math="0" shadow="0">
      <root>
        <mxCell id="0" />
        <mxCell id="1" parent="0" />
        <mxCell id="3" value="Dimensão Professor" style="shape=table;startSize=30;container=1;collapsible=1;childLayout=tableLayout;fixedRows=1;rowLines=0;fontStyle=1;align=center;resizeLast=1;html=1;fillColor=#bac8d3;strokeColor=#23445d;" parent="1" vertex="1">
          <mxGeometry x="470" y="-584" width="179" height="330" as="geometry" />
        </mxCell>
        <mxCell id="rkIAZnVEyB4yk_OKIuoK-241" style="shape=tableRow;horizontal=0;startSize=0;swimlaneHead=0;swimlaneBody=0;fillColor=#f5f5f5;collapsible=0;dropTarget=0;points=[[0,0.5],[1,0.5]];portConstraint=eastwest;top=0;left=0;right=0;bottom=1;html=1;strokeColor=default;fontColor=#333333;strokeWidth=0;" vertex="1" parent="3">
          <mxGeometry y="30" width="179" height="30" as="geometry" />
        </mxCell>
        <mxCell id="rkIAZnVEyB4yk_OKIuoK-242" value="FK" style="shape=partialRectangle;connectable=0;fillColor=none;top=0;left=0;bottom=0;right=0;fontStyle=1;overflow=hidden;html=1;whiteSpace=wrap;" vertex="1" parent="rkIAZnVEyB4yk_OKIuoK-241">
          <mxGeometry width="60" height="30" as="geometry">
            <mxRectangle width="60" height="30" as="alternateBounds" />
          </mxGeometry>
        </mxCell>
        <mxCell id="rkIAZnVEyB4yk_OKIuoK-243" value="id_fato" style="shape=partialRectangle;connectable=0;fillColor=none;top=0;left=0;bottom=0;right=0;align=left;spacingLeft=6;fontStyle=1;overflow=hidden;html=1;whiteSpace=wrap;" vertex="1" parent="rkIAZnVEyB4yk_OKIuoK-241">
          <mxGeometry x="60" width="119" height="30" as="geometry">
            <mxRectangle width="119" height="30" as="alternateBounds" />
          </mxGeometry>
        </mxCell>
        <mxCell id="rkIAZnVEyB4yk_OKIuoK-104" value="" style="shape=tableRow;horizontal=0;startSize=0;swimlaneHead=0;swimlaneBody=0;fillColor=#f5f5f5;collapsible=0;dropTarget=0;points=[[0,0.5],[1,0.5]];portConstraint=eastwest;top=0;left=0;right=0;bottom=1;html=1;strokeColor=#666666;fontColor=#333333;" vertex="1" parent="3">
          <mxGeometry y="60" width="179" height="30" as="geometry" />
        </mxCell>
        <mxCell id="rkIAZnVEyB4yk_OKIuoK-105" value="PK" style="shape=partialRectangle;connectable=0;fillColor=none;top=0;left=0;bottom=0;right=0;fontStyle=1;overflow=hidden;html=1;whiteSpace=wrap;" vertex="1" parent="rkIAZnVEyB4yk_OKIuoK-104">
          <mxGeometry width="60" height="30" as="geometry">
            <mxRectangle width="60" height="30" as="alternateBounds" />
          </mxGeometry>
        </mxCell>
        <mxCell id="rkIAZnVEyB4yk_OKIuoK-106" value="id_professor" style="shape=partialRectangle;connectable=0;fillColor=none;top=0;left=0;bottom=0;right=0;align=left;spacingLeft=6;fontStyle=1;overflow=hidden;html=1;whiteSpace=wrap;" vertex="1" parent="rkIAZnVEyB4yk_OKIuoK-104">
          <mxGeometry x="60" width="119" height="30" as="geometry">
            <mxRectangle width="119" height="30" as="alternateBounds" />
          </mxGeometry>
        </mxCell>
        <mxCell id="rkIAZnVEyB4yk_OKIuoK-107" value="" style="shape=tableRow;horizontal=0;startSize=0;swimlaneHead=0;swimlaneBody=0;collapsible=0;dropTarget=0;points=[[0,0.5],[1,0.5]];portConstraint=eastwest;top=0;left=0;right=0;bottom=0;html=1;" vertex="1" parent="3">
          <mxGeometry y="90" width="179" height="30" as="geometry" />
        </mxCell>
        <mxCell id="rkIAZnVEyB4yk_OKIuoK-108" value="string" style="shape=partialRectangle;connectable=0;fillColor=none;top=0;left=0;bottom=0;right=0;editable=1;overflow=hidden;html=1;whiteSpace=wrap;" vertex="1" parent="rkIAZnVEyB4yk_OKIuoK-107">
          <mxGeometry width="60" height="30" as="geometry">
            <mxRectangle width="60" height="30" as="alternateBounds" />
          </mxGeometry>
        </mxCell>
        <mxCell id="rkIAZnVEyB4yk_OKIuoK-109" value="nome" style="shape=partialRectangle;connectable=0;fillColor=none;top=0;left=0;bottom=0;right=0;align=left;spacingLeft=6;overflow=hidden;html=1;whiteSpace=wrap;" vertex="1" parent="rkIAZnVEyB4yk_OKIuoK-107">
          <mxGeometry x="60" width="119" height="30" as="geometry">
            <mxRectangle width="119" height="30" as="alternateBounds" />
          </mxGeometry>
        </mxCell>
        <mxCell id="rkIAZnVEyB4yk_OKIuoK-114" style="shape=tableRow;horizontal=0;startSize=0;swimlaneHead=0;swimlaneBody=0;collapsible=0;dropTarget=0;points=[[0,0.5],[1,0.5]];portConstraint=eastwest;top=0;left=0;right=0;bottom=0;html=1;" vertex="1" parent="3">
          <mxGeometry y="120" width="179" height="30" as="geometry" />
        </mxCell>
        <mxCell id="rkIAZnVEyB4yk_OKIuoK-115" value="int" style="shape=partialRectangle;connectable=0;fillColor=none;top=0;left=0;bottom=0;right=0;editable=1;overflow=hidden;html=1;whiteSpace=wrap;" vertex="1" parent="rkIAZnVEyB4yk_OKIuoK-114">
          <mxGeometry width="60" height="30" as="geometry">
            <mxRectangle width="60" height="30" as="alternateBounds" />
          </mxGeometry>
        </mxCell>
        <mxCell id="rkIAZnVEyB4yk_OKIuoK-116" value="título_acadêmico" style="shape=partialRectangle;connectable=0;fillColor=none;top=0;left=0;bottom=0;right=0;align=left;spacingLeft=6;overflow=hidden;html=1;whiteSpace=wrap;" vertex="1" parent="rkIAZnVEyB4yk_OKIuoK-114">
          <mxGeometry x="60" width="119" height="30" as="geometry">
            <mxRectangle width="119" height="30" as="alternateBounds" />
          </mxGeometry>
        </mxCell>
        <mxCell id="rkIAZnVEyB4yk_OKIuoK-120" style="shape=tableRow;horizontal=0;startSize=0;swimlaneHead=0;swimlaneBody=0;collapsible=0;dropTarget=0;points=[[0,0.5],[1,0.5]];portConstraint=eastwest;top=0;left=0;right=0;bottom=0;html=1;" vertex="1" parent="3">
          <mxGeometry y="150" width="179" height="30" as="geometry" />
        </mxCell>
        <mxCell id="rkIAZnVEyB4yk_OKIuoK-121" value="string" style="shape=partialRectangle;connectable=0;fillColor=none;top=0;left=0;bottom=0;right=0;editable=1;overflow=hidden;html=1;whiteSpace=wrap;" vertex="1" parent="rkIAZnVEyB4yk_OKIuoK-120">
          <mxGeometry width="60" height="30" as="geometry">
            <mxRectangle width="60" height="30" as="alternateBounds" />
          </mxGeometry>
        </mxCell>
        <mxCell id="rkIAZnVEyB4yk_OKIuoK-122" value="especialização" style="shape=partialRectangle;connectable=0;fillColor=none;top=0;left=0;bottom=0;right=0;align=left;spacingLeft=6;overflow=hidden;html=1;whiteSpace=wrap;" vertex="1" parent="rkIAZnVEyB4yk_OKIuoK-120">
          <mxGeometry x="60" width="119" height="30" as="geometry">
            <mxRectangle width="119" height="30" as="alternateBounds" />
          </mxGeometry>
        </mxCell>
        <mxCell id="rkIAZnVEyB4yk_OKIuoK-123" style="shape=tableRow;horizontal=0;startSize=0;swimlaneHead=0;swimlaneBody=0;collapsible=0;dropTarget=0;points=[[0,0.5],[1,0.5]];portConstraint=eastwest;top=0;left=0;right=0;bottom=0;html=1;" vertex="1" parent="3">
          <mxGeometry y="180" width="179" height="30" as="geometry" />
        </mxCell>
        <mxCell id="rkIAZnVEyB4yk_OKIuoK-124" value="int" style="shape=partialRectangle;connectable=0;fillColor=none;top=0;left=0;bottom=0;right=0;editable=1;overflow=hidden;html=1;whiteSpace=wrap;" vertex="1" parent="rkIAZnVEyB4yk_OKIuoK-123">
          <mxGeometry width="60" height="30" as="geometry">
            <mxRectangle width="60" height="30" as="alternateBounds" />
          </mxGeometry>
        </mxCell>
        <mxCell id="rkIAZnVEyB4yk_OKIuoK-125" value="anos_experiência" style="shape=partialRectangle;connectable=0;fillColor=none;top=0;left=0;bottom=0;right=0;align=left;spacingLeft=6;overflow=hidden;html=1;whiteSpace=wrap;" vertex="1" parent="rkIAZnVEyB4yk_OKIuoK-123">
          <mxGeometry x="60" width="119" height="30" as="geometry">
            <mxRectangle width="119" height="30" as="alternateBounds" />
          </mxGeometry>
        </mxCell>
        <mxCell id="rkIAZnVEyB4yk_OKIuoK-126" style="shape=tableRow;horizontal=0;startSize=0;swimlaneHead=0;swimlaneBody=0;collapsible=0;dropTarget=0;points=[[0,0.5],[1,0.5]];portConstraint=eastwest;top=0;left=0;right=0;bottom=0;html=1;" vertex="1" parent="3">
          <mxGeometry y="210" width="179" height="30" as="geometry" />
        </mxCell>
        <mxCell id="rkIAZnVEyB4yk_OKIuoK-127" value="date" style="shape=partialRectangle;connectable=0;fillColor=none;top=0;left=0;bottom=0;right=0;editable=1;overflow=hidden;html=1;whiteSpace=wrap;" vertex="1" parent="rkIAZnVEyB4yk_OKIuoK-126">
          <mxGeometry width="60" height="30" as="geometry">
            <mxRectangle width="60" height="30" as="alternateBounds" />
          </mxGeometry>
        </mxCell>
        <mxCell id="rkIAZnVEyB4yk_OKIuoK-128" value="data_admissão" style="shape=partialRectangle;connectable=0;top=0;left=0;bottom=0;right=0;align=left;spacingLeft=6;overflow=hidden;html=1;whiteSpace=wrap;" vertex="1" parent="rkIAZnVEyB4yk_OKIuoK-126">
          <mxGeometry x="60" width="119" height="30" as="geometry">
            <mxRectangle width="119" height="30" as="alternateBounds" />
          </mxGeometry>
        </mxCell>
        <mxCell id="rkIAZnVEyB4yk_OKIuoK-129" style="shape=tableRow;horizontal=0;startSize=0;swimlaneHead=0;swimlaneBody=0;collapsible=0;dropTarget=0;points=[[0,0.5],[1,0.5]];portConstraint=eastwest;top=0;left=0;right=0;bottom=0;html=1;" vertex="1" parent="3">
          <mxGeometry y="240" width="179" height="30" as="geometry" />
        </mxCell>
        <mxCell id="rkIAZnVEyB4yk_OKIuoK-130" value="int" style="shape=partialRectangle;connectable=0;fillColor=none;top=0;left=0;bottom=0;right=0;editable=1;overflow=hidden;html=1;whiteSpace=wrap;" vertex="1" parent="rkIAZnVEyB4yk_OKIuoK-129">
          <mxGeometry width="60" height="30" as="geometry">
            <mxRectangle width="60" height="30" as="alternateBounds" />
          </mxGeometry>
        </mxCell>
        <mxCell id="rkIAZnVEyB4yk_OKIuoK-131" value="gênero" style="shape=partialRectangle;connectable=0;fillColor=none;top=0;left=0;bottom=0;right=0;align=left;spacingLeft=6;overflow=hidden;html=1;whiteSpace=wrap;" vertex="1" parent="rkIAZnVEyB4yk_OKIuoK-129">
          <mxGeometry x="60" width="119" height="30" as="geometry">
            <mxRectangle width="119" height="30" as="alternateBounds" />
          </mxGeometry>
        </mxCell>
        <mxCell id="rkIAZnVEyB4yk_OKIuoK-132" style="shape=tableRow;horizontal=0;startSize=0;swimlaneHead=0;swimlaneBody=0;collapsible=0;dropTarget=0;points=[[0,0.5],[1,0.5]];portConstraint=eastwest;top=0;left=0;right=0;bottom=0;html=1;" vertex="1" parent="3">
          <mxGeometry y="270" width="179" height="30" as="geometry" />
        </mxCell>
        <mxCell id="rkIAZnVEyB4yk_OKIuoK-133" value="string" style="shape=partialRectangle;connectable=0;fillColor=none;top=0;left=0;bottom=0;right=0;editable=1;overflow=hidden;html=1;whiteSpace=wrap;" vertex="1" parent="rkIAZnVEyB4yk_OKIuoK-132">
          <mxGeometry width="60" height="30" as="geometry">
            <mxRectangle width="60" height="30" as="alternateBounds" />
          </mxGeometry>
        </mxCell>
        <mxCell id="rkIAZnVEyB4yk_OKIuoK-134" value="contato" style="shape=partialRectangle;connectable=0;fillColor=none;top=0;left=0;bottom=0;right=0;align=left;spacingLeft=6;overflow=hidden;html=1;whiteSpace=wrap;" vertex="1" parent="rkIAZnVEyB4yk_OKIuoK-132">
          <mxGeometry x="60" width="119" height="30" as="geometry">
            <mxRectangle width="119" height="30" as="alternateBounds" />
          </mxGeometry>
        </mxCell>
        <mxCell id="rkIAZnVEyB4yk_OKIuoK-135" style="shape=tableRow;horizontal=0;startSize=0;swimlaneHead=0;swimlaneBody=0;collapsible=0;dropTarget=0;points=[[0,0.5],[1,0.5]];portConstraint=eastwest;top=0;left=0;right=0;bottom=0;html=1;" vertex="1" parent="3">
          <mxGeometry y="300" width="179" height="30" as="geometry" />
        </mxCell>
        <mxCell id="rkIAZnVEyB4yk_OKIuoK-136" value="date" style="shape=partialRectangle;connectable=0;fillColor=none;top=0;left=0;bottom=0;right=0;editable=1;overflow=hidden;html=1;whiteSpace=wrap;" vertex="1" parent="rkIAZnVEyB4yk_OKIuoK-135">
          <mxGeometry width="60" height="30" as="geometry">
            <mxRectangle width="60" height="30" as="alternateBounds" />
          </mxGeometry>
        </mxCell>
        <mxCell id="rkIAZnVEyB4yk_OKIuoK-137" value="data_aniversário" style="shape=partialRectangle;connectable=0;fillColor=none;top=0;left=0;bottom=0;right=0;align=left;spacingLeft=6;overflow=hidden;html=1;whiteSpace=wrap;" vertex="1" parent="rkIAZnVEyB4yk_OKIuoK-135">
          <mxGeometry x="60" width="119" height="30" as="geometry">
            <mxRectangle width="119" height="30" as="alternateBounds" />
          </mxGeometry>
        </mxCell>
        <mxCell id="8" value="" style="startArrow=none;endArrow=block;entryX=0.5;entryY=0;entryDx=0;entryDy=0;edgeStyle=elbowEdgeStyle;elbow=horizontal;exitX=0.5;exitY=1;exitDx=0;exitDy=0;" parent="1" source="3" target="2" edge="1">
          <mxGeometry relative="1" as="geometry">
            <mxPoint x="397.00299999999993" y="-278.999" as="sourcePoint" />
            <mxPoint x="519" y="-40" as="targetPoint" />
          </mxGeometry>
        </mxCell>
        <mxCell id="9" value="" style="startArrow=none;endArrow=block;exitX=0;exitY=0.5;exitDx=0;exitDy=0;entryX=0;entryY=0.5;entryDx=0;entryDy=0;" parent="1" target="2" edge="1">
          <mxGeometry x="0.6132" y="3" relative="1" as="geometry">
            <mxPoint x="360" y="20" as="sourcePoint" />
            <mxPoint as="offset" />
          </mxGeometry>
        </mxCell>
        <mxCell id="10" value="" style="startArrow=none;endArrow=block;exitX=0.5;exitY=0;elbow=vertical;entryX=0.5;entryY=1;entryDx=0;entryDy=0;exitDx=0;exitDy=0;" parent="1" source="rkIAZnVEyB4yk_OKIuoK-167" target="2" edge="1">
          <mxGeometry x="-0.1634" y="13" relative="1" as="geometry">
            <mxPoint x="560" y="280" as="sourcePoint" />
            <mxPoint as="offset" />
          </mxGeometry>
        </mxCell>
        <mxCell id="12" value="Creativity" style="startArrow=none;endArrow=block;exitX=0.5;exitY=0;entryX=0.633;entryY=1.055;exitDx=0;exitDy=0;entryDx=0;entryDy=0;edgeStyle=elbowEdgeStyle;elbow=vertical;entryPerimeter=0;" parent="1" source="2" target="rkIAZnVEyB4yk_OKIuoK-163" edge="1">
          <mxGeometry relative="1" as="geometry">
            <mxPoint x="499.9950000000001" y="-82.00900000000001" as="sourcePoint" />
            <mxPoint x="706.5" y="-181" as="targetPoint" />
            <mxPoint as="offset" />
          </mxGeometry>
        </mxCell>
        <object label="Professor" id_fato="PK" id_professor="FK -&gt; dimensão Professor" id_curso="FK -&gt; dimensão Curso" id_departamento="FK -&gt; dimensão Departamento" id_data="FK -&gt; dimensão Data" id="2">
          <mxCell style="shape=table;startSize=30;container=1;collapsible=1;childLayout=tableLayout;fixedRows=1;rowLines=0;fontStyle=1;align=center;resizeLast=1;html=1;fillColor=#bac8d3;strokeColor=#23445d;" parent="1" vertex="1">
            <mxGeometry x="470" y="-120" width="180" height="280" as="geometry">
              <mxRectangle x="470" y="-120" width="90" height="30" as="alternateBounds" />
            </mxGeometry>
          </mxCell>
        </object>
        <mxCell id="rkIAZnVEyB4yk_OKIuoK-31" value="" style="shape=tableRow;horizontal=0;startSize=0;swimlaneHead=0;swimlaneBody=0;fillColor=#f5f5f5;collapsible=0;dropTarget=0;points=[[0,0.5],[1,0.5]];portConstraint=eastwest;top=0;left=0;right=0;bottom=0;html=1;fontColor=#333333;strokeColor=#666666;" vertex="1" parent="2">
          <mxGeometry y="30" width="180" height="20" as="geometry" />
        </mxCell>
        <mxCell id="rkIAZnVEyB4yk_OKIuoK-32" value="PK" style="shape=partialRectangle;connectable=0;fillColor=none;top=0;left=0;bottom=0;right=0;fontStyle=1;overflow=hidden;html=1;whiteSpace=wrap;" vertex="1" parent="rkIAZnVEyB4yk_OKIuoK-31">
          <mxGeometry width="40" height="20" as="geometry">
            <mxRectangle width="40" height="20" as="alternateBounds" />
          </mxGeometry>
        </mxCell>
        <mxCell id="rkIAZnVEyB4yk_OKIuoK-33" value="id_fato" style="shape=partialRectangle;connectable=0;fillColor=none;top=0;left=0;bottom=0;right=0;align=left;spacingLeft=6;fontStyle=1;overflow=hidden;html=1;whiteSpace=wrap;" vertex="1" parent="rkIAZnVEyB4yk_OKIuoK-31">
          <mxGeometry x="40" width="140" height="20" as="geometry">
            <mxRectangle width="140" height="20" as="alternateBounds" />
          </mxGeometry>
        </mxCell>
        <mxCell id="rkIAZnVEyB4yk_OKIuoK-45" style="shape=tableRow;horizontal=0;startSize=0;swimlaneHead=0;swimlaneBody=0;fillColor=#f5f5f5;collapsible=0;dropTarget=0;points=[[0,0.5],[1,0.5]];portConstraint=eastwest;top=0;left=0;right=0;bottom=0;html=1;fontColor=#333333;strokeColor=#666666;" vertex="1" parent="2">
          <mxGeometry y="50" width="180" height="20" as="geometry" />
        </mxCell>
        <mxCell id="rkIAZnVEyB4yk_OKIuoK-46" value="FK" style="shape=partialRectangle;connectable=0;fillColor=none;top=0;left=0;bottom=0;right=0;fontStyle=1;overflow=hidden;html=1;whiteSpace=wrap;" vertex="1" parent="rkIAZnVEyB4yk_OKIuoK-45">
          <mxGeometry width="40" height="20" as="geometry">
            <mxRectangle width="40" height="20" as="alternateBounds" />
          </mxGeometry>
        </mxCell>
        <mxCell id="rkIAZnVEyB4yk_OKIuoK-47" value="id_professor" style="shape=partialRectangle;connectable=0;fillColor=none;top=0;left=0;bottom=0;right=0;align=left;spacingLeft=6;fontStyle=1;overflow=hidden;html=1;whiteSpace=wrap;" vertex="1" parent="rkIAZnVEyB4yk_OKIuoK-45">
          <mxGeometry x="40" width="140" height="20" as="geometry">
            <mxRectangle width="140" height="20" as="alternateBounds" />
          </mxGeometry>
        </mxCell>
        <mxCell id="rkIAZnVEyB4yk_OKIuoK-84" style="shape=tableRow;horizontal=0;startSize=0;swimlaneHead=0;swimlaneBody=0;fillColor=#f5f5f5;collapsible=0;dropTarget=0;points=[[0,0.5],[1,0.5]];portConstraint=eastwest;top=0;left=0;right=0;bottom=0;html=1;fontColor=#333333;strokeColor=#666666;" vertex="1" parent="2">
          <mxGeometry y="70" width="180" height="20" as="geometry" />
        </mxCell>
        <mxCell id="rkIAZnVEyB4yk_OKIuoK-85" value="FK" style="shape=partialRectangle;connectable=0;fillColor=none;top=0;left=0;bottom=0;right=0;fontStyle=1;overflow=hidden;html=1;whiteSpace=wrap;" vertex="1" parent="rkIAZnVEyB4yk_OKIuoK-84">
          <mxGeometry width="40" height="20" as="geometry">
            <mxRectangle width="40" height="20" as="alternateBounds" />
          </mxGeometry>
        </mxCell>
        <mxCell id="rkIAZnVEyB4yk_OKIuoK-86" value="id_curso" style="shape=partialRectangle;connectable=0;fillColor=none;top=0;left=0;bottom=0;right=0;align=left;spacingLeft=6;fontStyle=1;overflow=hidden;html=1;whiteSpace=wrap;" vertex="1" parent="rkIAZnVEyB4yk_OKIuoK-84">
          <mxGeometry x="40" width="140" height="20" as="geometry">
            <mxRectangle width="140" height="20" as="alternateBounds" />
          </mxGeometry>
        </mxCell>
        <mxCell id="rkIAZnVEyB4yk_OKIuoK-81" style="shape=tableRow;horizontal=0;startSize=0;swimlaneHead=0;swimlaneBody=0;fillColor=#f5f5f5;collapsible=0;dropTarget=0;points=[[0,0.5],[1,0.5]];portConstraint=eastwest;top=0;left=0;right=0;bottom=0;html=1;fontColor=#333333;strokeColor=#666666;" vertex="1" parent="2">
          <mxGeometry y="90" width="180" height="20" as="geometry" />
        </mxCell>
        <mxCell id="rkIAZnVEyB4yk_OKIuoK-82" value="FK" style="shape=partialRectangle;connectable=0;fillColor=none;top=0;left=0;bottom=0;right=0;fontStyle=1;overflow=hidden;html=1;whiteSpace=wrap;" vertex="1" parent="rkIAZnVEyB4yk_OKIuoK-81">
          <mxGeometry width="40" height="20" as="geometry">
            <mxRectangle width="40" height="20" as="alternateBounds" />
          </mxGeometry>
        </mxCell>
        <mxCell id="rkIAZnVEyB4yk_OKIuoK-83" value="id_departamento" style="shape=partialRectangle;connectable=0;fillColor=none;top=0;left=0;bottom=0;right=0;align=left;spacingLeft=6;fontStyle=1;overflow=hidden;html=1;whiteSpace=wrap;" vertex="1" parent="rkIAZnVEyB4yk_OKIuoK-81">
          <mxGeometry x="40" width="140" height="20" as="geometry">
            <mxRectangle width="140" height="20" as="alternateBounds" />
          </mxGeometry>
        </mxCell>
        <mxCell id="rkIAZnVEyB4yk_OKIuoK-34" value="" style="shape=tableRow;horizontal=0;startSize=0;swimlaneHead=0;swimlaneBody=0;fillColor=#f5f5f5;collapsible=0;dropTarget=0;points=[[0,0.5],[1,0.5]];portConstraint=eastwest;top=0;left=0;right=0;bottom=1;html=1;fontColor=#333333;strokeColor=#666666;" vertex="1" parent="2">
          <mxGeometry y="110" width="180" height="20" as="geometry" />
        </mxCell>
        <mxCell id="rkIAZnVEyB4yk_OKIuoK-35" value="FK" style="shape=partialRectangle;connectable=0;fillColor=none;top=0;left=0;bottom=0;right=0;fontStyle=1;overflow=hidden;html=1;whiteSpace=wrap;" vertex="1" parent="rkIAZnVEyB4yk_OKIuoK-34">
          <mxGeometry width="40" height="20" as="geometry">
            <mxRectangle width="40" height="20" as="alternateBounds" />
          </mxGeometry>
        </mxCell>
        <mxCell id="rkIAZnVEyB4yk_OKIuoK-36" value="id_data" style="shape=partialRectangle;connectable=0;fillColor=none;top=0;left=0;bottom=0;right=0;align=left;spacingLeft=6;fontStyle=1;overflow=hidden;html=1;whiteSpace=wrap;" vertex="1" parent="rkIAZnVEyB4yk_OKIuoK-34">
          <mxGeometry x="40" width="140" height="20" as="geometry">
            <mxRectangle width="140" height="20" as="alternateBounds" />
          </mxGeometry>
        </mxCell>
        <mxCell id="rkIAZnVEyB4yk_OKIuoK-37" value="" style="shape=tableRow;horizontal=0;startSize=0;swimlaneHead=0;swimlaneBody=0;collapsible=0;dropTarget=0;points=[[0,0.5],[1,0.5]];portConstraint=eastwest;top=0;left=0;right=0;bottom=0;html=1;" vertex="1" parent="2">
          <mxGeometry y="130" width="180" height="30" as="geometry" />
        </mxCell>
        <mxCell id="rkIAZnVEyB4yk_OKIuoK-38" value="int" style="shape=partialRectangle;connectable=0;fillColor=none;top=0;left=0;bottom=0;right=0;editable=1;overflow=hidden;html=1;whiteSpace=wrap;" vertex="1" parent="rkIAZnVEyB4yk_OKIuoK-37">
          <mxGeometry width="40" height="30" as="geometry">
            <mxRectangle width="40" height="30" as="alternateBounds" />
          </mxGeometry>
        </mxCell>
        <mxCell id="rkIAZnVEyB4yk_OKIuoK-39" value="qte_cursos_vinculado" style="shape=partialRectangle;connectable=0;fillColor=none;top=0;left=0;bottom=0;right=0;align=left;spacingLeft=6;overflow=hidden;html=1;whiteSpace=wrap;" vertex="1" parent="rkIAZnVEyB4yk_OKIuoK-37">
          <mxGeometry x="40" width="140" height="30" as="geometry">
            <mxRectangle width="140" height="30" as="alternateBounds" />
          </mxGeometry>
        </mxCell>
        <mxCell id="rkIAZnVEyB4yk_OKIuoK-88" style="shape=tableRow;horizontal=0;startSize=0;swimlaneHead=0;swimlaneBody=0;collapsible=0;dropTarget=0;points=[[0,0.5],[1,0.5]];portConstraint=eastwest;top=0;left=0;right=0;bottom=0;html=1;strokeColor=#000000;" vertex="1" parent="2">
          <mxGeometry y="160" width="180" height="30" as="geometry" />
        </mxCell>
        <mxCell id="rkIAZnVEyB4yk_OKIuoK-89" value="int" style="shape=partialRectangle;connectable=0;fillColor=none;top=0;left=0;bottom=0;right=0;editable=1;overflow=hidden;html=1;whiteSpace=wrap;" vertex="1" parent="rkIAZnVEyB4yk_OKIuoK-88">
          <mxGeometry width="40" height="30" as="geometry">
            <mxRectangle width="40" height="30" as="alternateBounds" />
          </mxGeometry>
        </mxCell>
        <mxCell id="rkIAZnVEyB4yk_OKIuoK-90" value="carga_horária" style="shape=partialRectangle;connectable=0;fillColor=none;top=0;left=0;bottom=0;right=0;align=left;spacingLeft=6;overflow=hidden;html=1;whiteSpace=wrap;" vertex="1" parent="rkIAZnVEyB4yk_OKIuoK-88">
          <mxGeometry x="40" width="140" height="30" as="geometry">
            <mxRectangle width="140" height="30" as="alternateBounds" />
          </mxGeometry>
        </mxCell>
        <mxCell id="rkIAZnVEyB4yk_OKIuoK-91" style="shape=tableRow;horizontal=0;startSize=0;swimlaneHead=0;swimlaneBody=0;collapsible=0;dropTarget=0;points=[[0,0.5],[1,0.5]];portConstraint=eastwest;top=0;left=0;right=0;bottom=0;html=1;" vertex="1" parent="2">
          <mxGeometry y="190" width="180" height="30" as="geometry" />
        </mxCell>
        <mxCell id="rkIAZnVEyB4yk_OKIuoK-92" value="int" style="shape=partialRectangle;connectable=0;fillColor=none;top=0;left=0;bottom=0;right=0;editable=1;overflow=hidden;html=1;whiteSpace=wrap;" vertex="1" parent="rkIAZnVEyB4yk_OKIuoK-91">
          <mxGeometry width="40" height="30" as="geometry">
            <mxRectangle width="40" height="30" as="alternateBounds" />
          </mxGeometry>
        </mxCell>
        <mxCell id="rkIAZnVEyB4yk_OKIuoK-93" value="avaliação_média" style="shape=partialRectangle;connectable=0;fillColor=none;top=0;left=0;bottom=0;right=0;align=left;spacingLeft=6;overflow=hidden;html=1;whiteSpace=wrap;" vertex="1" parent="rkIAZnVEyB4yk_OKIuoK-91">
          <mxGeometry x="40" width="140" height="30" as="geometry">
            <mxRectangle width="140" height="30" as="alternateBounds" />
          </mxGeometry>
        </mxCell>
        <mxCell id="rkIAZnVEyB4yk_OKIuoK-94" style="shape=tableRow;horizontal=0;startSize=0;swimlaneHead=0;swimlaneBody=0;collapsible=0;dropTarget=0;points=[[0,0.5],[1,0.5]];portConstraint=eastwest;top=0;left=0;right=0;bottom=0;html=1;" vertex="1" parent="2">
          <mxGeometry y="220" width="180" height="30" as="geometry" />
        </mxCell>
        <mxCell id="rkIAZnVEyB4yk_OKIuoK-95" value="int" style="shape=partialRectangle;connectable=0;fillColor=none;top=0;left=0;bottom=0;right=0;editable=1;overflow=hidden;html=1;whiteSpace=wrap;" vertex="1" parent="rkIAZnVEyB4yk_OKIuoK-94">
          <mxGeometry width="40" height="30" as="geometry">
            <mxRectangle width="40" height="30" as="alternateBounds" />
          </mxGeometry>
        </mxCell>
        <mxCell id="rkIAZnVEyB4yk_OKIuoK-96" value="num_publicações" style="shape=partialRectangle;connectable=0;fillColor=none;top=0;left=0;bottom=0;right=0;align=left;spacingLeft=6;overflow=hidden;html=1;whiteSpace=wrap;" vertex="1" parent="rkIAZnVEyB4yk_OKIuoK-94">
          <mxGeometry x="40" width="140" height="30" as="geometry">
            <mxRectangle width="140" height="30" as="alternateBounds" />
          </mxGeometry>
        </mxCell>
        <mxCell id="rkIAZnVEyB4yk_OKIuoK-97" style="shape=tableRow;horizontal=0;startSize=0;swimlaneHead=0;swimlaneBody=0;collapsible=0;dropTarget=0;points=[[0,0.5],[1,0.5]];portConstraint=eastwest;top=0;left=0;right=0;bottom=0;html=1;" vertex="1" parent="2">
          <mxGeometry y="250" width="180" height="30" as="geometry" />
        </mxCell>
        <mxCell id="rkIAZnVEyB4yk_OKIuoK-98" value="date" style="shape=partialRectangle;connectable=0;fillColor=none;top=0;left=0;bottom=0;right=0;editable=1;overflow=hidden;html=1;whiteSpace=wrap;" vertex="1" parent="rkIAZnVEyB4yk_OKIuoK-97">
          <mxGeometry width="40" height="30" as="geometry">
            <mxRectangle width="40" height="30" as="alternateBounds" />
          </mxGeometry>
        </mxCell>
        <mxCell id="rkIAZnVEyB4yk_OKIuoK-99" value="agenda_datas" style="shape=partialRectangle;connectable=0;fillColor=none;top=0;left=0;bottom=0;right=0;align=left;spacingLeft=6;overflow=hidden;html=1;whiteSpace=wrap;" vertex="1" parent="rkIAZnVEyB4yk_OKIuoK-97">
          <mxGeometry x="40" width="140" height="30" as="geometry">
            <mxRectangle width="140" height="30" as="alternateBounds" />
          </mxGeometry>
        </mxCell>
        <mxCell id="rkIAZnVEyB4yk_OKIuoK-138" value="Dimensão Curso" style="shape=table;startSize=30;container=1;collapsible=1;childLayout=tableLayout;fixedRows=1;rowLines=0;fontStyle=1;align=center;resizeLast=1;html=1;fillColor=#bac8d3;strokeColor=#23445d;" vertex="1" parent="1">
          <mxGeometry x="800" y="-120" width="179" height="330" as="geometry" />
        </mxCell>
        <mxCell id="rkIAZnVEyB4yk_OKIuoK-232" style="shape=tableRow;horizontal=0;startSize=0;swimlaneHead=0;swimlaneBody=0;fillColor=#f5f5f5;collapsible=0;dropTarget=0;points=[[0,0.5],[1,0.5]];portConstraint=eastwest;top=0;left=0;right=0;bottom=1;html=1;fontColor=#333333;strokeColor=default;strokeWidth=0;" vertex="1" parent="rkIAZnVEyB4yk_OKIuoK-138">
          <mxGeometry y="30" width="179" height="30" as="geometry" />
        </mxCell>
        <mxCell id="rkIAZnVEyB4yk_OKIuoK-233" value="FK" style="shape=partialRectangle;connectable=0;fillColor=none;top=0;left=0;bottom=0;right=0;fontStyle=1;overflow=hidden;html=1;whiteSpace=wrap;" vertex="1" parent="rkIAZnVEyB4yk_OKIuoK-232">
          <mxGeometry width="60" height="30" as="geometry">
            <mxRectangle width="60" height="30" as="alternateBounds" />
          </mxGeometry>
        </mxCell>
        <mxCell id="rkIAZnVEyB4yk_OKIuoK-234" value="id_fato" style="shape=partialRectangle;connectable=0;fillColor=none;top=0;left=0;bottom=0;right=0;align=left;spacingLeft=6;fontStyle=1;overflow=hidden;html=1;whiteSpace=wrap;" vertex="1" parent="rkIAZnVEyB4yk_OKIuoK-232">
          <mxGeometry x="60" width="119" height="30" as="geometry">
            <mxRectangle width="119" height="30" as="alternateBounds" />
          </mxGeometry>
        </mxCell>
        <mxCell id="rkIAZnVEyB4yk_OKIuoK-139" value="" style="shape=tableRow;horizontal=0;startSize=0;swimlaneHead=0;swimlaneBody=0;fillColor=#f5f5f5;collapsible=0;dropTarget=0;points=[[0,0.5],[1,0.5]];portConstraint=eastwest;top=0;left=0;right=0;bottom=1;html=1;fontColor=#333333;strokeColor=#666666;" vertex="1" parent="rkIAZnVEyB4yk_OKIuoK-138">
          <mxGeometry y="60" width="179" height="30" as="geometry" />
        </mxCell>
        <mxCell id="rkIAZnVEyB4yk_OKIuoK-140" value="PK" style="shape=partialRectangle;connectable=0;fillColor=none;top=0;left=0;bottom=0;right=0;fontStyle=1;overflow=hidden;html=1;whiteSpace=wrap;" vertex="1" parent="rkIAZnVEyB4yk_OKIuoK-139">
          <mxGeometry width="60" height="30" as="geometry">
            <mxRectangle width="60" height="30" as="alternateBounds" />
          </mxGeometry>
        </mxCell>
        <mxCell id="rkIAZnVEyB4yk_OKIuoK-141" value="id_curso" style="shape=partialRectangle;connectable=0;fillColor=none;top=0;left=0;bottom=0;right=0;align=left;spacingLeft=6;fontStyle=1;overflow=hidden;html=1;whiteSpace=wrap;" vertex="1" parent="rkIAZnVEyB4yk_OKIuoK-139">
          <mxGeometry x="60" width="119" height="30" as="geometry">
            <mxRectangle width="119" height="30" as="alternateBounds" />
          </mxGeometry>
        </mxCell>
        <mxCell id="rkIAZnVEyB4yk_OKIuoK-142" value="" style="shape=tableRow;horizontal=0;startSize=0;swimlaneHead=0;swimlaneBody=0;collapsible=0;dropTarget=0;points=[[0,0.5],[1,0.5]];portConstraint=eastwest;top=0;left=0;right=0;bottom=0;html=1;" vertex="1" parent="rkIAZnVEyB4yk_OKIuoK-138">
          <mxGeometry y="90" width="179" height="30" as="geometry" />
        </mxCell>
        <mxCell id="rkIAZnVEyB4yk_OKIuoK-143" value="string" style="shape=partialRectangle;connectable=0;fillColor=none;top=0;left=0;bottom=0;right=0;editable=1;overflow=hidden;html=1;whiteSpace=wrap;" vertex="1" parent="rkIAZnVEyB4yk_OKIuoK-142">
          <mxGeometry width="60" height="30" as="geometry">
            <mxRectangle width="60" height="30" as="alternateBounds" />
          </mxGeometry>
        </mxCell>
        <mxCell id="rkIAZnVEyB4yk_OKIuoK-144" value="nome" style="shape=partialRectangle;connectable=0;fillColor=none;top=0;left=0;bottom=0;right=0;align=left;spacingLeft=6;overflow=hidden;html=1;whiteSpace=wrap;" vertex="1" parent="rkIAZnVEyB4yk_OKIuoK-142">
          <mxGeometry x="60" width="119" height="30" as="geometry">
            <mxRectangle width="119" height="30" as="alternateBounds" />
          </mxGeometry>
        </mxCell>
        <mxCell id="rkIAZnVEyB4yk_OKIuoK-145" style="shape=tableRow;horizontal=0;startSize=0;swimlaneHead=0;swimlaneBody=0;collapsible=0;dropTarget=0;points=[[0,0.5],[1,0.5]];portConstraint=eastwest;top=0;left=0;right=0;bottom=0;html=1;" vertex="1" parent="rkIAZnVEyB4yk_OKIuoK-138">
          <mxGeometry y="120" width="179" height="30" as="geometry" />
        </mxCell>
        <mxCell id="rkIAZnVEyB4yk_OKIuoK-146" value="int" style="shape=partialRectangle;connectable=0;fillColor=none;top=0;left=0;bottom=0;right=0;editable=1;overflow=hidden;html=1;whiteSpace=wrap;" vertex="1" parent="rkIAZnVEyB4yk_OKIuoK-145">
          <mxGeometry width="60" height="30" as="geometry">
            <mxRectangle width="60" height="30" as="alternateBounds" />
          </mxGeometry>
        </mxCell>
        <mxCell id="rkIAZnVEyB4yk_OKIuoK-147" value="nível_curso" style="shape=partialRectangle;connectable=0;fillColor=none;top=0;left=0;bottom=0;right=0;align=left;spacingLeft=6;overflow=hidden;html=1;whiteSpace=wrap;" vertex="1" parent="rkIAZnVEyB4yk_OKIuoK-145">
          <mxGeometry x="60" width="119" height="30" as="geometry">
            <mxRectangle width="119" height="30" as="alternateBounds" />
          </mxGeometry>
        </mxCell>
        <mxCell id="rkIAZnVEyB4yk_OKIuoK-148" style="shape=tableRow;horizontal=0;startSize=0;swimlaneHead=0;swimlaneBody=0;collapsible=0;dropTarget=0;points=[[0,0.5],[1,0.5]];portConstraint=eastwest;top=0;left=0;right=0;bottom=0;html=1;" vertex="1" parent="rkIAZnVEyB4yk_OKIuoK-138">
          <mxGeometry y="150" width="179" height="30" as="geometry" />
        </mxCell>
        <mxCell id="rkIAZnVEyB4yk_OKIuoK-149" value="string" style="shape=partialRectangle;connectable=0;fillColor=none;top=0;left=0;bottom=0;right=0;editable=1;overflow=hidden;html=1;whiteSpace=wrap;" vertex="1" parent="rkIAZnVEyB4yk_OKIuoK-148">
          <mxGeometry width="60" height="30" as="geometry">
            <mxRectangle width="60" height="30" as="alternateBounds" />
          </mxGeometry>
        </mxCell>
        <mxCell id="rkIAZnVEyB4yk_OKIuoK-150" value="área_conhecimento" style="shape=partialRectangle;connectable=0;fillColor=none;top=0;left=0;bottom=0;right=0;align=left;spacingLeft=6;overflow=hidden;html=1;whiteSpace=wrap;" vertex="1" parent="rkIAZnVEyB4yk_OKIuoK-148">
          <mxGeometry x="60" width="119" height="30" as="geometry">
            <mxRectangle width="119" height="30" as="alternateBounds" />
          </mxGeometry>
        </mxCell>
        <mxCell id="rkIAZnVEyB4yk_OKIuoK-151" style="shape=tableRow;horizontal=0;startSize=0;swimlaneHead=0;swimlaneBody=0;collapsible=0;dropTarget=0;points=[[0,0.5],[1,0.5]];portConstraint=eastwest;top=0;left=0;right=0;bottom=0;html=1;" vertex="1" parent="rkIAZnVEyB4yk_OKIuoK-138">
          <mxGeometry y="180" width="179" height="30" as="geometry" />
        </mxCell>
        <mxCell id="rkIAZnVEyB4yk_OKIuoK-152" value="int" style="shape=partialRectangle;connectable=0;fillColor=none;top=0;left=0;bottom=0;right=0;editable=1;overflow=hidden;html=1;whiteSpace=wrap;" vertex="1" parent="rkIAZnVEyB4yk_OKIuoK-151">
          <mxGeometry width="60" height="30" as="geometry">
            <mxRectangle width="60" height="30" as="alternateBounds" />
          </mxGeometry>
        </mxCell>
        <mxCell id="rkIAZnVEyB4yk_OKIuoK-153" value="carga_horária" style="shape=partialRectangle;connectable=0;fillColor=none;top=0;left=0;bottom=0;right=0;align=left;spacingLeft=6;overflow=hidden;html=1;whiteSpace=wrap;" vertex="1" parent="rkIAZnVEyB4yk_OKIuoK-151">
          <mxGeometry x="60" width="119" height="30" as="geometry">
            <mxRectangle width="119" height="30" as="alternateBounds" />
          </mxGeometry>
        </mxCell>
        <mxCell id="rkIAZnVEyB4yk_OKIuoK-154" style="shape=tableRow;horizontal=0;startSize=0;swimlaneHead=0;swimlaneBody=0;collapsible=0;dropTarget=0;points=[[0,0.5],[1,0.5]];portConstraint=eastwest;top=0;left=0;right=0;bottom=0;html=1;" vertex="1" parent="rkIAZnVEyB4yk_OKIuoK-138">
          <mxGeometry y="210" width="179" height="30" as="geometry" />
        </mxCell>
        <mxCell id="rkIAZnVEyB4yk_OKIuoK-155" value="date" style="shape=partialRectangle;connectable=0;fillColor=none;top=0;left=0;bottom=0;right=0;editable=1;overflow=hidden;html=1;whiteSpace=wrap;" vertex="1" parent="rkIAZnVEyB4yk_OKIuoK-154">
          <mxGeometry width="60" height="30" as="geometry">
            <mxRectangle width="60" height="30" as="alternateBounds" />
          </mxGeometry>
        </mxCell>
        <mxCell id="rkIAZnVEyB4yk_OKIuoK-156" value="créditos" style="shape=partialRectangle;connectable=0;fillColor=none;top=0;left=0;bottom=0;right=0;align=left;spacingLeft=6;overflow=hidden;html=1;whiteSpace=wrap;" vertex="1" parent="rkIAZnVEyB4yk_OKIuoK-154">
          <mxGeometry x="60" width="119" height="30" as="geometry">
            <mxRectangle width="119" height="30" as="alternateBounds" />
          </mxGeometry>
        </mxCell>
        <mxCell id="rkIAZnVEyB4yk_OKIuoK-157" style="shape=tableRow;horizontal=0;startSize=0;swimlaneHead=0;swimlaneBody=0;collapsible=0;dropTarget=0;points=[[0,0.5],[1,0.5]];portConstraint=eastwest;top=0;left=0;right=0;bottom=0;html=1;" vertex="1" parent="rkIAZnVEyB4yk_OKIuoK-138">
          <mxGeometry y="240" width="179" height="30" as="geometry" />
        </mxCell>
        <mxCell id="rkIAZnVEyB4yk_OKIuoK-158" value="list" style="shape=partialRectangle;connectable=0;fillColor=none;top=0;left=0;bottom=0;right=0;editable=1;overflow=hidden;html=1;whiteSpace=wrap;" vertex="1" parent="rkIAZnVEyB4yk_OKIuoK-157">
          <mxGeometry width="60" height="30" as="geometry">
            <mxRectangle width="60" height="30" as="alternateBounds" />
          </mxGeometry>
        </mxCell>
        <mxCell id="rkIAZnVEyB4yk_OKIuoK-159" value="alunos" style="shape=partialRectangle;connectable=0;fillColor=none;top=0;left=0;bottom=0;right=0;align=left;spacingLeft=6;overflow=hidden;html=1;whiteSpace=wrap;" vertex="1" parent="rkIAZnVEyB4yk_OKIuoK-157">
          <mxGeometry x="60" width="119" height="30" as="geometry">
            <mxRectangle width="119" height="30" as="alternateBounds" />
          </mxGeometry>
        </mxCell>
        <mxCell id="rkIAZnVEyB4yk_OKIuoK-160" style="shape=tableRow;horizontal=0;startSize=0;swimlaneHead=0;swimlaneBody=0;collapsible=0;dropTarget=0;points=[[0,0.5],[1,0.5]];portConstraint=eastwest;top=0;left=0;right=0;bottom=0;html=1;" vertex="1" parent="rkIAZnVEyB4yk_OKIuoK-138">
          <mxGeometry y="270" width="179" height="30" as="geometry" />
        </mxCell>
        <mxCell id="rkIAZnVEyB4yk_OKIuoK-161" value="string" style="shape=partialRectangle;connectable=0;fillColor=none;top=0;left=0;bottom=0;right=0;editable=1;overflow=hidden;html=1;whiteSpace=wrap;" vertex="1" parent="rkIAZnVEyB4yk_OKIuoK-160">
          <mxGeometry width="60" height="30" as="geometry">
            <mxRectangle width="60" height="30" as="alternateBounds" />
          </mxGeometry>
        </mxCell>
        <mxCell id="rkIAZnVEyB4yk_OKIuoK-162" value="ementa" style="shape=partialRectangle;connectable=0;fillColor=none;top=0;left=0;bottom=0;right=0;align=left;spacingLeft=6;overflow=hidden;html=1;whiteSpace=wrap;" vertex="1" parent="rkIAZnVEyB4yk_OKIuoK-160">
          <mxGeometry x="60" width="119" height="30" as="geometry">
            <mxRectangle width="119" height="30" as="alternateBounds" />
          </mxGeometry>
        </mxCell>
        <mxCell id="rkIAZnVEyB4yk_OKIuoK-226" style="shape=tableRow;horizontal=0;startSize=0;swimlaneHead=0;swimlaneBody=0;collapsible=0;dropTarget=0;points=[[0,0.5],[1,0.5]];portConstraint=eastwest;top=0;left=0;right=0;bottom=0;html=1;" vertex="1" parent="rkIAZnVEyB4yk_OKIuoK-138">
          <mxGeometry y="300" width="179" height="30" as="geometry" />
        </mxCell>
        <mxCell id="rkIAZnVEyB4yk_OKIuoK-227" value="string" style="shape=partialRectangle;connectable=0;fillColor=none;top=0;left=0;bottom=0;right=0;editable=1;overflow=hidden;html=1;whiteSpace=wrap;" vertex="1" parent="rkIAZnVEyB4yk_OKIuoK-226">
          <mxGeometry width="60" height="30" as="geometry">
            <mxRectangle width="60" height="30" as="alternateBounds" />
          </mxGeometry>
        </mxCell>
        <mxCell id="rkIAZnVEyB4yk_OKIuoK-228" value="pré_requisitos" style="shape=partialRectangle;connectable=0;fillColor=none;top=0;left=0;bottom=0;right=0;align=left;spacingLeft=6;overflow=hidden;html=1;whiteSpace=wrap;" vertex="1" parent="rkIAZnVEyB4yk_OKIuoK-226">
          <mxGeometry x="60" width="119" height="30" as="geometry">
            <mxRectangle width="119" height="30" as="alternateBounds" />
          </mxGeometry>
        </mxCell>
        <mxCell id="rkIAZnVEyB4yk_OKIuoK-167" value="Dimensão Departamento" style="shape=table;startSize=30;container=1;collapsible=1;childLayout=tableLayout;fixedRows=1;rowLines=0;fontStyle=1;align=center;resizeLast=1;html=1;fillColor=#bac8d3;strokeColor=#23445d;" vertex="1" parent="1">
          <mxGeometry x="465.25" y="260" width="189.5" height="300" as="geometry" />
        </mxCell>
        <mxCell id="rkIAZnVEyB4yk_OKIuoK-235" style="shape=tableRow;horizontal=0;startSize=0;swimlaneHead=0;swimlaneBody=0;fillColor=#f5f5f5;collapsible=0;dropTarget=0;points=[[0,0.5],[1,0.5]];portConstraint=eastwest;top=0;left=0;right=0;bottom=1;html=1;fontColor=#333333;strokeColor=#666666;strokeWidth=0;" vertex="1" parent="rkIAZnVEyB4yk_OKIuoK-167">
          <mxGeometry y="30" width="189.5" height="30" as="geometry" />
        </mxCell>
        <mxCell id="rkIAZnVEyB4yk_OKIuoK-236" value="FK" style="shape=partialRectangle;connectable=0;fillColor=none;top=0;left=0;bottom=0;right=0;fontStyle=1;overflow=hidden;html=1;whiteSpace=wrap;" vertex="1" parent="rkIAZnVEyB4yk_OKIuoK-235">
          <mxGeometry width="60" height="30" as="geometry">
            <mxRectangle width="60" height="30" as="alternateBounds" />
          </mxGeometry>
        </mxCell>
        <mxCell id="rkIAZnVEyB4yk_OKIuoK-237" value="id_fato" style="shape=partialRectangle;connectable=0;fillColor=none;top=0;left=0;bottom=0;right=0;align=left;spacingLeft=6;fontStyle=1;overflow=hidden;html=1;whiteSpace=wrap;" vertex="1" parent="rkIAZnVEyB4yk_OKIuoK-235">
          <mxGeometry x="60" width="129.5" height="30" as="geometry">
            <mxRectangle width="129.5" height="30" as="alternateBounds" />
          </mxGeometry>
        </mxCell>
        <mxCell id="rkIAZnVEyB4yk_OKIuoK-168" value="" style="shape=tableRow;horizontal=0;startSize=0;swimlaneHead=0;swimlaneBody=0;fillColor=#f5f5f5;collapsible=0;dropTarget=0;points=[[0,0.5],[1,0.5]];portConstraint=eastwest;top=0;left=0;right=0;bottom=1;html=1;fontColor=#333333;strokeColor=#666666;" vertex="1" parent="rkIAZnVEyB4yk_OKIuoK-167">
          <mxGeometry y="60" width="189.5" height="30" as="geometry" />
        </mxCell>
        <mxCell id="rkIAZnVEyB4yk_OKIuoK-169" value="PK" style="shape=partialRectangle;connectable=0;fillColor=none;top=0;left=0;bottom=0;right=0;fontStyle=1;overflow=hidden;html=1;whiteSpace=wrap;" vertex="1" parent="rkIAZnVEyB4yk_OKIuoK-168">
          <mxGeometry width="60" height="30" as="geometry">
            <mxRectangle width="60" height="30" as="alternateBounds" />
          </mxGeometry>
        </mxCell>
        <mxCell id="rkIAZnVEyB4yk_OKIuoK-170" value="id_departamento" style="shape=partialRectangle;connectable=0;fillColor=none;top=0;left=0;bottom=0;right=0;align=left;spacingLeft=6;fontStyle=1;overflow=hidden;html=1;whiteSpace=wrap;" vertex="1" parent="rkIAZnVEyB4yk_OKIuoK-168">
          <mxGeometry x="60" width="129.5" height="30" as="geometry">
            <mxRectangle width="129.5" height="30" as="alternateBounds" />
          </mxGeometry>
        </mxCell>
        <mxCell id="rkIAZnVEyB4yk_OKIuoK-171" value="" style="shape=tableRow;horizontal=0;startSize=0;swimlaneHead=0;swimlaneBody=0;collapsible=0;dropTarget=0;points=[[0,0.5],[1,0.5]];portConstraint=eastwest;top=0;left=0;right=0;bottom=0;html=1;" vertex="1" parent="rkIAZnVEyB4yk_OKIuoK-167">
          <mxGeometry y="90" width="189.5" height="30" as="geometry" />
        </mxCell>
        <mxCell id="rkIAZnVEyB4yk_OKIuoK-172" value="string" style="shape=partialRectangle;connectable=0;fillColor=none;top=0;left=0;bottom=0;right=0;editable=1;overflow=hidden;html=1;whiteSpace=wrap;" vertex="1" parent="rkIAZnVEyB4yk_OKIuoK-171">
          <mxGeometry width="60" height="30" as="geometry">
            <mxRectangle width="60" height="30" as="alternateBounds" />
          </mxGeometry>
        </mxCell>
        <mxCell id="rkIAZnVEyB4yk_OKIuoK-173" value="nome" style="shape=partialRectangle;connectable=0;fillColor=none;top=0;left=0;bottom=0;right=0;align=left;spacingLeft=6;overflow=hidden;html=1;whiteSpace=wrap;" vertex="1" parent="rkIAZnVEyB4yk_OKIuoK-171">
          <mxGeometry x="60" width="129.5" height="30" as="geometry">
            <mxRectangle width="129.5" height="30" as="alternateBounds" />
          </mxGeometry>
        </mxCell>
        <mxCell id="rkIAZnVEyB4yk_OKIuoK-174" style="shape=tableRow;horizontal=0;startSize=0;swimlaneHead=0;swimlaneBody=0;collapsible=0;dropTarget=0;points=[[0,0.5],[1,0.5]];portConstraint=eastwest;top=0;left=0;right=0;bottom=0;html=1;" vertex="1" parent="rkIAZnVEyB4yk_OKIuoK-167">
          <mxGeometry y="120" width="189.5" height="30" as="geometry" />
        </mxCell>
        <mxCell id="rkIAZnVEyB4yk_OKIuoK-175" value="string" style="shape=partialRectangle;connectable=0;fillColor=none;top=0;left=0;bottom=0;right=0;editable=1;overflow=hidden;html=1;whiteSpace=wrap;" vertex="1" parent="rkIAZnVEyB4yk_OKIuoK-174">
          <mxGeometry width="60" height="30" as="geometry">
            <mxRectangle width="60" height="30" as="alternateBounds" />
          </mxGeometry>
        </mxCell>
        <mxCell id="rkIAZnVEyB4yk_OKIuoK-176" value="instituição" style="shape=partialRectangle;connectable=0;fillColor=none;top=0;left=0;bottom=0;right=0;align=left;spacingLeft=6;overflow=hidden;html=1;whiteSpace=wrap;" vertex="1" parent="rkIAZnVEyB4yk_OKIuoK-174">
          <mxGeometry x="60" width="129.5" height="30" as="geometry">
            <mxRectangle width="129.5" height="30" as="alternateBounds" />
          </mxGeometry>
        </mxCell>
        <mxCell id="rkIAZnVEyB4yk_OKIuoK-177" style="shape=tableRow;horizontal=0;startSize=0;swimlaneHead=0;swimlaneBody=0;collapsible=0;dropTarget=0;points=[[0,0.5],[1,0.5]];portConstraint=eastwest;top=0;left=0;right=0;bottom=0;html=1;" vertex="1" parent="rkIAZnVEyB4yk_OKIuoK-167">
          <mxGeometry y="150" width="189.5" height="30" as="geometry" />
        </mxCell>
        <mxCell id="rkIAZnVEyB4yk_OKIuoK-178" value="float" style="shape=partialRectangle;connectable=0;fillColor=none;top=0;left=0;bottom=0;right=0;editable=1;overflow=hidden;html=1;whiteSpace=wrap;" vertex="1" parent="rkIAZnVEyB4yk_OKIuoK-177">
          <mxGeometry width="60" height="30" as="geometry">
            <mxRectangle width="60" height="30" as="alternateBounds" />
          </mxGeometry>
        </mxCell>
        <mxCell id="rkIAZnVEyB4yk_OKIuoK-179" value="localização" style="shape=partialRectangle;connectable=0;fillColor=none;top=0;left=0;bottom=0;right=0;align=left;spacingLeft=6;overflow=hidden;html=1;whiteSpace=wrap;" vertex="1" parent="rkIAZnVEyB4yk_OKIuoK-177">
          <mxGeometry x="60" width="129.5" height="30" as="geometry">
            <mxRectangle width="129.5" height="30" as="alternateBounds" />
          </mxGeometry>
        </mxCell>
        <mxCell id="rkIAZnVEyB4yk_OKIuoK-180" style="shape=tableRow;horizontal=0;startSize=0;swimlaneHead=0;swimlaneBody=0;collapsible=0;dropTarget=0;points=[[0,0.5],[1,0.5]];portConstraint=eastwest;top=0;left=0;right=0;bottom=0;html=1;" vertex="1" parent="rkIAZnVEyB4yk_OKIuoK-167">
          <mxGeometry y="180" width="189.5" height="30" as="geometry" />
        </mxCell>
        <mxCell id="rkIAZnVEyB4yk_OKIuoK-181" value="string" style="shape=partialRectangle;connectable=0;fillColor=none;top=0;left=0;bottom=0;right=0;editable=1;overflow=hidden;html=1;whiteSpace=wrap;" vertex="1" parent="rkIAZnVEyB4yk_OKIuoK-180">
          <mxGeometry width="60" height="30" as="geometry">
            <mxRectangle width="60" height="30" as="alternateBounds" />
          </mxGeometry>
        </mxCell>
        <mxCell id="rkIAZnVEyB4yk_OKIuoK-182" value="chefe_departamento" style="shape=partialRectangle;connectable=0;fillColor=none;top=0;left=0;bottom=0;right=0;align=left;spacingLeft=6;overflow=hidden;html=1;whiteSpace=wrap;" vertex="1" parent="rkIAZnVEyB4yk_OKIuoK-180">
          <mxGeometry x="60" width="129.5" height="30" as="geometry">
            <mxRectangle width="129.5" height="30" as="alternateBounds" />
          </mxGeometry>
        </mxCell>
        <mxCell id="rkIAZnVEyB4yk_OKIuoK-183" style="shape=tableRow;horizontal=0;startSize=0;swimlaneHead=0;swimlaneBody=0;collapsible=0;dropTarget=0;points=[[0,0.5],[1,0.5]];portConstraint=eastwest;top=0;left=0;right=0;bottom=0;html=1;" vertex="1" parent="rkIAZnVEyB4yk_OKIuoK-167">
          <mxGeometry y="210" width="189.5" height="30" as="geometry" />
        </mxCell>
        <mxCell id="rkIAZnVEyB4yk_OKIuoK-184" value="int" style="shape=partialRectangle;connectable=0;fillColor=none;top=0;left=0;bottom=0;right=0;editable=1;overflow=hidden;html=1;whiteSpace=wrap;" vertex="1" parent="rkIAZnVEyB4yk_OKIuoK-183">
          <mxGeometry width="60" height="30" as="geometry">
            <mxRectangle width="60" height="30" as="alternateBounds" />
          </mxGeometry>
        </mxCell>
        <mxCell id="rkIAZnVEyB4yk_OKIuoK-185" value="total_professores" style="shape=partialRectangle;connectable=0;fillColor=none;top=0;left=0;bottom=0;right=0;align=left;spacingLeft=6;overflow=hidden;html=1;whiteSpace=wrap;" vertex="1" parent="rkIAZnVEyB4yk_OKIuoK-183">
          <mxGeometry x="60" width="129.5" height="30" as="geometry">
            <mxRectangle width="129.5" height="30" as="alternateBounds" />
          </mxGeometry>
        </mxCell>
        <mxCell id="rkIAZnVEyB4yk_OKIuoK-186" style="shape=tableRow;horizontal=0;startSize=0;swimlaneHead=0;swimlaneBody=0;collapsible=0;dropTarget=0;points=[[0,0.5],[1,0.5]];portConstraint=eastwest;top=0;left=0;right=0;bottom=0;html=1;" vertex="1" parent="rkIAZnVEyB4yk_OKIuoK-167">
          <mxGeometry y="240" width="189.5" height="30" as="geometry" />
        </mxCell>
        <mxCell id="rkIAZnVEyB4yk_OKIuoK-187" value="int" style="shape=partialRectangle;connectable=0;fillColor=none;top=0;left=0;bottom=0;right=0;editable=1;overflow=hidden;html=1;whiteSpace=wrap;" vertex="1" parent="rkIAZnVEyB4yk_OKIuoK-186">
          <mxGeometry width="60" height="30" as="geometry">
            <mxRectangle width="60" height="30" as="alternateBounds" />
          </mxGeometry>
        </mxCell>
        <mxCell id="rkIAZnVEyB4yk_OKIuoK-188" value="total_carga_horária" style="shape=partialRectangle;connectable=0;fillColor=none;top=0;left=0;bottom=0;right=0;align=left;spacingLeft=6;overflow=hidden;html=1;whiteSpace=wrap;" vertex="1" parent="rkIAZnVEyB4yk_OKIuoK-186">
          <mxGeometry x="60" width="129.5" height="30" as="geometry">
            <mxRectangle width="129.5" height="30" as="alternateBounds" />
          </mxGeometry>
        </mxCell>
        <mxCell id="rkIAZnVEyB4yk_OKIuoK-189" style="shape=tableRow;horizontal=0;startSize=0;swimlaneHead=0;swimlaneBody=0;collapsible=0;dropTarget=0;points=[[0,0.5],[1,0.5]];portConstraint=eastwest;top=0;left=0;right=0;bottom=0;html=1;" vertex="1" parent="rkIAZnVEyB4yk_OKIuoK-167">
          <mxGeometry y="270" width="189.5" height="30" as="geometry" />
        </mxCell>
        <mxCell id="rkIAZnVEyB4yk_OKIuoK-190" value="int" style="shape=partialRectangle;connectable=0;fillColor=none;top=0;left=0;bottom=0;right=0;editable=1;overflow=hidden;html=1;whiteSpace=wrap;" vertex="1" parent="rkIAZnVEyB4yk_OKIuoK-189">
          <mxGeometry width="60" height="30" as="geometry">
            <mxRectangle width="60" height="30" as="alternateBounds" />
          </mxGeometry>
        </mxCell>
        <mxCell id="rkIAZnVEyB4yk_OKIuoK-191" value="total_apoio_adm" style="shape=partialRectangle;connectable=0;fillColor=none;top=0;left=0;bottom=0;right=0;align=left;spacingLeft=6;overflow=hidden;html=1;whiteSpace=wrap;" vertex="1" parent="rkIAZnVEyB4yk_OKIuoK-189">
          <mxGeometry x="60" width="129.5" height="30" as="geometry">
            <mxRectangle width="129.5" height="30" as="alternateBounds" />
          </mxGeometry>
        </mxCell>
        <mxCell id="rkIAZnVEyB4yk_OKIuoK-192" value="Dimensão Data" style="shape=table;startSize=30;container=1;collapsible=1;childLayout=tableLayout;fixedRows=1;rowLines=0;fontStyle=1;align=center;resizeLast=1;html=1;fillColor=#bac8d3;strokeColor=#23445d;" vertex="1" parent="1">
          <mxGeometry x="170" y="-100" width="189.5" height="360" as="geometry" />
        </mxCell>
        <mxCell id="rkIAZnVEyB4yk_OKIuoK-238" style="shape=tableRow;horizontal=0;startSize=0;swimlaneHead=0;swimlaneBody=0;fillColor=#f5f5f5;collapsible=0;dropTarget=0;points=[[0,0.5],[1,0.5]];portConstraint=eastwest;top=0;left=0;right=0;bottom=1;html=1;fontColor=#333333;strokeColor=#666666;strokeWidth=0;" vertex="1" parent="rkIAZnVEyB4yk_OKIuoK-192">
          <mxGeometry y="30" width="189.5" height="30" as="geometry" />
        </mxCell>
        <mxCell id="rkIAZnVEyB4yk_OKIuoK-239" value="FK" style="shape=partialRectangle;connectable=0;fillColor=none;top=0;left=0;bottom=0;right=0;fontStyle=1;overflow=hidden;html=1;whiteSpace=wrap;" vertex="1" parent="rkIAZnVEyB4yk_OKIuoK-238">
          <mxGeometry width="60" height="30" as="geometry">
            <mxRectangle width="60" height="30" as="alternateBounds" />
          </mxGeometry>
        </mxCell>
        <mxCell id="rkIAZnVEyB4yk_OKIuoK-240" value="id_fato" style="shape=partialRectangle;connectable=0;fillColor=none;top=0;left=0;bottom=0;right=0;align=left;spacingLeft=6;fontStyle=1;overflow=hidden;html=1;whiteSpace=wrap;" vertex="1" parent="rkIAZnVEyB4yk_OKIuoK-238">
          <mxGeometry x="60" width="129.5" height="30" as="geometry">
            <mxRectangle width="129.5" height="30" as="alternateBounds" />
          </mxGeometry>
        </mxCell>
        <mxCell id="rkIAZnVEyB4yk_OKIuoK-193" value="" style="shape=tableRow;horizontal=0;startSize=0;swimlaneHead=0;swimlaneBody=0;fillColor=#f5f5f5;collapsible=0;dropTarget=0;points=[[0,0.5],[1,0.5]];portConstraint=eastwest;top=0;left=0;right=0;bottom=1;html=1;fontColor=#333333;strokeColor=#666666;" vertex="1" parent="rkIAZnVEyB4yk_OKIuoK-192">
          <mxGeometry y="60" width="189.5" height="30" as="geometry" />
        </mxCell>
        <mxCell id="rkIAZnVEyB4yk_OKIuoK-194" value="PK" style="shape=partialRectangle;connectable=0;fillColor=none;top=0;left=0;bottom=0;right=0;fontStyle=1;overflow=hidden;html=1;whiteSpace=wrap;" vertex="1" parent="rkIAZnVEyB4yk_OKIuoK-193">
          <mxGeometry width="60" height="30" as="geometry">
            <mxRectangle width="60" height="30" as="alternateBounds" />
          </mxGeometry>
        </mxCell>
        <mxCell id="rkIAZnVEyB4yk_OKIuoK-195" value="id_data" style="shape=partialRectangle;connectable=0;fillColor=none;top=0;left=0;bottom=0;right=0;align=left;spacingLeft=6;fontStyle=1;overflow=hidden;html=1;whiteSpace=wrap;" vertex="1" parent="rkIAZnVEyB4yk_OKIuoK-193">
          <mxGeometry x="60" width="129.5" height="30" as="geometry">
            <mxRectangle width="129.5" height="30" as="alternateBounds" />
          </mxGeometry>
        </mxCell>
        <mxCell id="rkIAZnVEyB4yk_OKIuoK-196" value="" style="shape=tableRow;horizontal=0;startSize=0;swimlaneHead=0;swimlaneBody=0;collapsible=0;dropTarget=0;points=[[0,0.5],[1,0.5]];portConstraint=eastwest;top=0;left=0;right=0;bottom=0;html=1;" vertex="1" parent="rkIAZnVEyB4yk_OKIuoK-192">
          <mxGeometry y="90" width="189.5" height="30" as="geometry" />
        </mxCell>
        <mxCell id="rkIAZnVEyB4yk_OKIuoK-197" value="date" style="shape=partialRectangle;connectable=0;fillColor=none;top=0;left=0;bottom=0;right=0;editable=1;overflow=hidden;html=1;whiteSpace=wrap;" vertex="1" parent="rkIAZnVEyB4yk_OKIuoK-196">
          <mxGeometry width="60" height="30" as="geometry">
            <mxRectangle width="60" height="30" as="alternateBounds" />
          </mxGeometry>
        </mxCell>
        <mxCell id="rkIAZnVEyB4yk_OKIuoK-198" value="data_completa" style="shape=partialRectangle;connectable=0;fillColor=none;top=0;left=0;bottom=0;right=0;align=left;spacingLeft=6;overflow=hidden;html=1;whiteSpace=wrap;" vertex="1" parent="rkIAZnVEyB4yk_OKIuoK-196">
          <mxGeometry x="60" width="129.5" height="30" as="geometry">
            <mxRectangle width="129.5" height="30" as="alternateBounds" />
          </mxGeometry>
        </mxCell>
        <mxCell id="rkIAZnVEyB4yk_OKIuoK-199" style="shape=tableRow;horizontal=0;startSize=0;swimlaneHead=0;swimlaneBody=0;collapsible=0;dropTarget=0;points=[[0,0.5],[1,0.5]];portConstraint=eastwest;top=0;left=0;right=0;bottom=0;html=1;" vertex="1" parent="rkIAZnVEyB4yk_OKIuoK-192">
          <mxGeometry y="120" width="189.5" height="30" as="geometry" />
        </mxCell>
        <mxCell id="rkIAZnVEyB4yk_OKIuoK-200" value="int" style="shape=partialRectangle;connectable=0;fillColor=none;top=0;left=0;bottom=0;right=0;editable=1;overflow=hidden;html=1;whiteSpace=wrap;" vertex="1" parent="rkIAZnVEyB4yk_OKIuoK-199">
          <mxGeometry width="60" height="30" as="geometry">
            <mxRectangle width="60" height="30" as="alternateBounds" />
          </mxGeometry>
        </mxCell>
        <mxCell id="rkIAZnVEyB4yk_OKIuoK-201" value="dia" style="shape=partialRectangle;connectable=0;fillColor=none;top=0;left=0;bottom=0;right=0;align=left;spacingLeft=6;overflow=hidden;html=1;whiteSpace=wrap;" vertex="1" parent="rkIAZnVEyB4yk_OKIuoK-199">
          <mxGeometry x="60" width="129.5" height="30" as="geometry">
            <mxRectangle width="129.5" height="30" as="alternateBounds" />
          </mxGeometry>
        </mxCell>
        <mxCell id="rkIAZnVEyB4yk_OKIuoK-202" style="shape=tableRow;horizontal=0;startSize=0;swimlaneHead=0;swimlaneBody=0;collapsible=0;dropTarget=0;points=[[0,0.5],[1,0.5]];portConstraint=eastwest;top=0;left=0;right=0;bottom=0;html=1;" vertex="1" parent="rkIAZnVEyB4yk_OKIuoK-192">
          <mxGeometry y="150" width="189.5" height="30" as="geometry" />
        </mxCell>
        <mxCell id="rkIAZnVEyB4yk_OKIuoK-203" value="int" style="shape=partialRectangle;connectable=0;fillColor=none;top=0;left=0;bottom=0;right=0;editable=1;overflow=hidden;html=1;whiteSpace=wrap;" vertex="1" parent="rkIAZnVEyB4yk_OKIuoK-202">
          <mxGeometry width="60" height="30" as="geometry">
            <mxRectangle width="60" height="30" as="alternateBounds" />
          </mxGeometry>
        </mxCell>
        <mxCell id="rkIAZnVEyB4yk_OKIuoK-204" value="mês" style="shape=partialRectangle;connectable=0;fillColor=none;top=0;left=0;bottom=0;right=0;align=left;spacingLeft=6;overflow=hidden;html=1;whiteSpace=wrap;" vertex="1" parent="rkIAZnVEyB4yk_OKIuoK-202">
          <mxGeometry x="60" width="129.5" height="30" as="geometry">
            <mxRectangle width="129.5" height="30" as="alternateBounds" />
          </mxGeometry>
        </mxCell>
        <mxCell id="rkIAZnVEyB4yk_OKIuoK-205" style="shape=tableRow;horizontal=0;startSize=0;swimlaneHead=0;swimlaneBody=0;collapsible=0;dropTarget=0;points=[[0,0.5],[1,0.5]];portConstraint=eastwest;top=0;left=0;right=0;bottom=0;html=1;" vertex="1" parent="rkIAZnVEyB4yk_OKIuoK-192">
          <mxGeometry y="180" width="189.5" height="30" as="geometry" />
        </mxCell>
        <mxCell id="rkIAZnVEyB4yk_OKIuoK-206" value="int" style="shape=partialRectangle;connectable=0;fillColor=none;top=0;left=0;bottom=0;right=0;editable=1;overflow=hidden;html=1;whiteSpace=wrap;" vertex="1" parent="rkIAZnVEyB4yk_OKIuoK-205">
          <mxGeometry width="60" height="30" as="geometry">
            <mxRectangle width="60" height="30" as="alternateBounds" />
          </mxGeometry>
        </mxCell>
        <mxCell id="rkIAZnVEyB4yk_OKIuoK-207" value="ano" style="shape=partialRectangle;connectable=0;fillColor=none;top=0;left=0;bottom=0;right=0;align=left;spacingLeft=6;overflow=hidden;html=1;whiteSpace=wrap;" vertex="1" parent="rkIAZnVEyB4yk_OKIuoK-205">
          <mxGeometry x="60" width="129.5" height="30" as="geometry">
            <mxRectangle width="129.5" height="30" as="alternateBounds" />
          </mxGeometry>
        </mxCell>
        <mxCell id="rkIAZnVEyB4yk_OKIuoK-208" style="shape=tableRow;horizontal=0;startSize=0;swimlaneHead=0;swimlaneBody=0;collapsible=0;dropTarget=0;points=[[0,0.5],[1,0.5]];portConstraint=eastwest;top=0;left=0;right=0;bottom=0;html=1;" vertex="1" parent="rkIAZnVEyB4yk_OKIuoK-192">
          <mxGeometry y="210" width="189.5" height="30" as="geometry" />
        </mxCell>
        <mxCell id="rkIAZnVEyB4yk_OKIuoK-209" value="int" style="shape=partialRectangle;connectable=0;fillColor=none;top=0;left=0;bottom=0;right=0;editable=1;overflow=hidden;html=1;whiteSpace=wrap;" vertex="1" parent="rkIAZnVEyB4yk_OKIuoK-208">
          <mxGeometry width="60" height="30" as="geometry">
            <mxRectangle width="60" height="30" as="alternateBounds" />
          </mxGeometry>
        </mxCell>
        <mxCell id="rkIAZnVEyB4yk_OKIuoK-210" value="trismestre" style="shape=partialRectangle;connectable=0;fillColor=none;top=0;left=0;bottom=0;right=0;align=left;spacingLeft=6;overflow=hidden;html=1;whiteSpace=wrap;" vertex="1" parent="rkIAZnVEyB4yk_OKIuoK-208">
          <mxGeometry x="60" width="129.5" height="30" as="geometry">
            <mxRectangle width="129.5" height="30" as="alternateBounds" />
          </mxGeometry>
        </mxCell>
        <mxCell id="rkIAZnVEyB4yk_OKIuoK-211" style="shape=tableRow;horizontal=0;startSize=0;swimlaneHead=0;swimlaneBody=0;collapsible=0;dropTarget=0;points=[[0,0.5],[1,0.5]];portConstraint=eastwest;top=0;left=0;right=0;bottom=0;html=1;" vertex="1" parent="rkIAZnVEyB4yk_OKIuoK-192">
          <mxGeometry y="240" width="189.5" height="30" as="geometry" />
        </mxCell>
        <mxCell id="rkIAZnVEyB4yk_OKIuoK-212" value="int" style="shape=partialRectangle;connectable=0;fillColor=none;top=0;left=0;bottom=0;right=0;editable=1;overflow=hidden;html=1;whiteSpace=wrap;" vertex="1" parent="rkIAZnVEyB4yk_OKIuoK-211">
          <mxGeometry width="60" height="30" as="geometry">
            <mxRectangle width="60" height="30" as="alternateBounds" />
          </mxGeometry>
        </mxCell>
        <mxCell id="rkIAZnVEyB4yk_OKIuoK-213" value="semestre" style="shape=partialRectangle;connectable=0;fillColor=none;top=0;left=0;bottom=0;right=0;align=left;spacingLeft=6;overflow=hidden;html=1;whiteSpace=wrap;" vertex="1" parent="rkIAZnVEyB4yk_OKIuoK-211">
          <mxGeometry x="60" width="129.5" height="30" as="geometry">
            <mxRectangle width="129.5" height="30" as="alternateBounds" />
          </mxGeometry>
        </mxCell>
        <mxCell id="rkIAZnVEyB4yk_OKIuoK-214" style="shape=tableRow;horizontal=0;startSize=0;swimlaneHead=0;swimlaneBody=0;collapsible=0;dropTarget=0;points=[[0,0.5],[1,0.5]];portConstraint=eastwest;top=0;left=0;right=0;bottom=0;html=1;" vertex="1" parent="rkIAZnVEyB4yk_OKIuoK-192">
          <mxGeometry y="270" width="189.5" height="30" as="geometry" />
        </mxCell>
        <mxCell id="rkIAZnVEyB4yk_OKIuoK-215" value="bool" style="shape=partialRectangle;connectable=0;fillColor=none;top=0;left=0;bottom=0;right=0;editable=1;overflow=hidden;html=1;whiteSpace=wrap;" vertex="1" parent="rkIAZnVEyB4yk_OKIuoK-214">
          <mxGeometry width="60" height="30" as="geometry">
            <mxRectangle width="60" height="30" as="alternateBounds" />
          </mxGeometry>
        </mxCell>
        <mxCell id="rkIAZnVEyB4yk_OKIuoK-216" value="é_fim_de_semana" style="shape=partialRectangle;connectable=0;fillColor=none;top=0;left=0;bottom=0;right=0;align=left;spacingLeft=6;overflow=hidden;html=1;whiteSpace=wrap;" vertex="1" parent="rkIAZnVEyB4yk_OKIuoK-214">
          <mxGeometry x="60" width="129.5" height="30" as="geometry">
            <mxRectangle width="129.5" height="30" as="alternateBounds" />
          </mxGeometry>
        </mxCell>
        <mxCell id="rkIAZnVEyB4yk_OKIuoK-217" style="shape=tableRow;horizontal=0;startSize=0;swimlaneHead=0;swimlaneBody=0;collapsible=0;dropTarget=0;points=[[0,0.5],[1,0.5]];portConstraint=eastwest;top=0;left=0;right=0;bottom=0;html=1;" vertex="1" parent="rkIAZnVEyB4yk_OKIuoK-192">
          <mxGeometry y="300" width="189.5" height="30" as="geometry" />
        </mxCell>
        <mxCell id="rkIAZnVEyB4yk_OKIuoK-218" value="bool" style="shape=partialRectangle;connectable=0;fillColor=none;top=0;left=0;bottom=0;right=0;editable=1;overflow=hidden;html=1;whiteSpace=wrap;" vertex="1" parent="rkIAZnVEyB4yk_OKIuoK-217">
          <mxGeometry width="60" height="30" as="geometry">
            <mxRectangle width="60" height="30" as="alternateBounds" />
          </mxGeometry>
        </mxCell>
        <mxCell id="rkIAZnVEyB4yk_OKIuoK-219" value="é_feriado" style="shape=partialRectangle;connectable=0;fillColor=none;top=0;left=0;bottom=0;right=0;align=left;spacingLeft=6;overflow=hidden;html=1;whiteSpace=wrap;" vertex="1" parent="rkIAZnVEyB4yk_OKIuoK-217">
          <mxGeometry x="60" width="129.5" height="30" as="geometry">
            <mxRectangle width="129.5" height="30" as="alternateBounds" />
          </mxGeometry>
        </mxCell>
        <mxCell id="rkIAZnVEyB4yk_OKIuoK-223" style="shape=tableRow;horizontal=0;startSize=0;swimlaneHead=0;swimlaneBody=0;collapsible=0;dropTarget=0;points=[[0,0.5],[1,0.5]];portConstraint=eastwest;top=0;left=0;right=0;bottom=0;html=1;" vertex="1" parent="rkIAZnVEyB4yk_OKIuoK-192">
          <mxGeometry y="330" width="189.5" height="30" as="geometry" />
        </mxCell>
        <mxCell id="rkIAZnVEyB4yk_OKIuoK-224" value="bool" style="shape=partialRectangle;connectable=0;fillColor=none;top=0;left=0;bottom=0;right=0;editable=1;overflow=hidden;html=1;whiteSpace=wrap;" vertex="1" parent="rkIAZnVEyB4yk_OKIuoK-223">
          <mxGeometry width="60" height="30" as="geometry">
            <mxRectangle width="60" height="30" as="alternateBounds" />
          </mxGeometry>
        </mxCell>
        <mxCell id="rkIAZnVEyB4yk_OKIuoK-225" value="é_férias" style="shape=partialRectangle;connectable=0;fillColor=none;top=0;left=0;bottom=0;right=0;align=left;spacingLeft=6;overflow=hidden;html=1;whiteSpace=wrap;" vertex="1" parent="rkIAZnVEyB4yk_OKIuoK-223">
          <mxGeometry x="60" width="129.5" height="30" as="geometry">
            <mxRectangle width="129.5" height="30" as="alternateBounds" />
          </mxGeometry>
        </mxCell>
        <mxCell id="rkIAZnVEyB4yk_OKIuoK-166" value="" style="elbow=horizontal;endArrow=classic;html=1;rounded=0;endSize=8;startSize=8;entryX=0.999;entryY=0.16;entryDx=0;entryDy=0;entryPerimeter=0;exitX=0;exitY=0.5;exitDx=0;exitDy=0;" edge="1" parent="1" source="rkIAZnVEyB4yk_OKIuoK-145" target="rkIAZnVEyB4yk_OKIuoK-37">
          <mxGeometry width="50" height="50" relative="1" as="geometry">
            <mxPoint x="790" y="-40" as="sourcePoint" />
            <mxPoint x="660" y="12" as="targetPoint" />
          </mxGeometry>
        </mxCell>
      </root>
    </mxGraphModel>
  </diagram>
</mxfile>
